# xmcd CD database file
#
# Track frame offsets:
#	150
#	28472
#	61830
#
# Disc length: 1307 seconds
#
# Revision: 2
# Processed by: cddbd v1.5PL3 Copyright (c) Steve Scherf et al.
# Submitted via: CDex 1.50
#
DISCID=23051903
DTITLE=DEEP PURPLE - Made In Japan-Remastered [CD2-The Encores)
DYEAR=1972
DGENRE=Hard Rock
TTITLE0=Black Night (LIVE)
TTITLE1=Speed King (LIVE)
TTITLE2=Lucille (LIVE)
EXTD=YEAR: 1972
EXTT0=
EXTT1=
EXTT2=
PLAYORDER=
